PathFileType	4	(X/Y/Z)	50_2_58_p0_0-972_filt_butterworth.trc
DataRate	CameraRate	NumFrames	NumMarkers	Units	OrigDataRate	OrigDataStartFrame	OrigNumFrames
47.0	47.0	5	27	m	47.0	121	972
Frame#	Time	RHip			RKnee			RAnkle			RBigToe			RSmallToe			RHeel			LHip			LKnee			LAnkle			LBigToe			LSmallToe			LHeel			Neck			Head			Nose			RShoulder			RElbow			RWrist			RThumb			RIndex			RPinky			LShoulder			LElbow			LWrist			LThumb			LIndex			LPinky			
		X1	Y1	Z1	X2	Y2	Z2	X3	Y3	Z3	X4	Y4	Z4	X5	Y5	Z5	X6	Y6	Z6	X7	Y7	Z7	X8	Y8	Z8	X9	Y9	Z9	X10	Y10	Z10	X11	Y11	Z11	X12	Y12	Z12	X13	Y13	Z13	X14	Y14	Z14	X15	Y15	Z15	X16	Y16	Z16	X17	Y17	Z17	X18	Y18	Z18	X19	Y19	Z19	X20	Y20	Z20	X21	Y21	Z21	X22	Y22	Z22	X23	Y23	Z23	X24	Y24	Z24	X25	Y25	Z25	X26	Y26	Z26	X27	Y27	Z27	
121	2.574468085106383	0.3060759460782329	0.7238437467815948	0.49195718090545304	0.311453990099392	0.8558291340502006	0.9190327065558019	0.3182231702908184	1.0381441206736248	1.3534174154382415	0.2628733909276061	0.8594667215553362	1.417567200417766	0.33927621613836717	0.8715270166563197	1.4200831611124256	0.2930574111259424	1.1254812415972393	1.3934761484513822	0.10955695471721777	0.7550534235217754	0.49907330793412297	0.10894422573522661	0.8788547321319846	0.9352191086802891	0.09520425106563343	1.016681387808858	1.3343671381722788	0.09920170351737248	0.8600841253387099	1.3964497312222623	0.039169570969372264	0.8756799246590693	1.3841906264039112	0.1134862653679948	1.0733635571689477	1.3953074961615297	0.19235675696265608	0.5755756917399631	0.03740975591224803	0.1734628535176787	0.3877743897620817	-0.18074088662655757	0.16578017989781094	0.3952905545080621	-0.029138928562556014	0.33667928274655845	0.5414006877945268	0.09509827181335707	0.4312183671716944	0.6153521196665865	0.34512659767394527	0.39812479184479216	0.5893438506891278	0.5845045431954566	0.31321665476105554	0.5777411363693613	0.686749100262617	0.32081034432687816	0.5622532817873966	0.716792856727904	0.3653087687353018	0.644414355539194	0.7180764973109324	0.0541553744633141	0.6246474571245862	0.09090322734853638	-0.02067217397273757	0.7396163421389379	0.3477463641763306	-0.07918073756121581	0.7198263239005073	0.589356037028645	-0.05454915923713644	0.7373519667915074	0.7006810926964657	-0.0904389147133734	0.6980033836456264	0.7112207842926408	-0.1265884652762445	0.784673713548937	0.7119489086830055
122	2.595744680851064	0.30573486866457805	0.7229476250214428	0.4933433312371407	0.31121124855752774	0.8567542842950905	0.9202051300759703	0.31824742943990725	1.0381316499359001	1.3533902584236381	0.2628816733644549	0.8595408503244493	1.417574729403983	0.33847816611170045	0.8719452791001472	1.42015814763071	0.29313426702169965	1.125503459856728	1.393472014150829	0.10952096671819421	0.7548045069507564	0.4987816685475485	0.10889539424223722	0.8786524631423075	0.9347036267502016	0.09520846843692207	1.0161934401161896	1.3339114339384117	0.0992147435177353	0.8600605552967702	1.396434294552129	0.039182673563579004	0.8756924109460936	1.3841819986825037	0.11330359335184599	1.0723785101113616	1.3950413791758227	0.1925297585715871	0.5749929972967351	0.037456576855010235	0.17247554309019475	0.38753462058775145	-0.18083813313390623	0.16505110774669024	0.3940087686634479	-0.02976955654784187	0.3378805044283304	0.5449203060986391	0.0953749081162562	0.4312142080936532	0.6153562762135543	0.3451399992279055	0.39802407256494077	0.5900823409204692	0.58455443611727	0.31309571542284365	0.5777011730552966	0.686755599999609	0.32079142283421413	0.562316974936589	0.7168322092495838	0.3654764274453015	0.644035487810364	0.7181641843769798	0.054194738197978404	0.6246378087509705	0.09075635148033605	-0.02074271753128813	0.7397845519013143	0.34831444668579975	-0.07792437720953667	0.7259595846669111	0.5897631258394637	-0.05442934210286463	0.7381018278307905	0.7008020224636803	-0.09045988558548974	0.6987158823047144	0.7112238599089564	-0.12712821082566067	0.789114885446881	0.7123268230385447
123	2.617021276595745	0.30593649662485434	0.7230104210982102	0.4936568951220869	0.3108960817400088	0.8580625539573937	0.922704134804359	0.31829391820047515	1.0382034811928773	1.353392409702047	0.26285114843213664	0.8595795396492106	1.4176135356561572	0.33784099878389295	0.8717559357867868	1.4202032484391678	0.2931934762790076	1.1254964960699851	1.3934514843798558	0.10967772120850162	0.7540873538568502	0.49773863745650554	0.10888313668466743	0.8783630423906355	0.9337704924150907	0.09555245907589503	1.015714990953792	1.332399297136114	0.10110003055236678	0.8606418125515164	1.3965943973642796	0.03918093021123899	0.8756178717269681	1.3841442390787861	0.11309855141946176	1.0708332704212453	1.3949149471416145	0.19237449273128093	0.5756558209325937	0.03738589261783736	0.17101111982421538	0.38720333846489335	-0.18066255622346167	0.1644977173080778	0.3942684500471153	-0.03012180743934888	0.33810376984882873	0.5455057084037268	0.0950866415797055	0.43121386166705483	0.615337250707555	0.3451579410234238	0.3981256760937614	0.5895989957823338	0.5845296644177238	0.31291114871302794	0.5777312731897277	0.6867618073412263	0.3207406880317148	0.5624367484844227	0.7169095840867425	0.3654413857130747	0.6440424607506332	0.71830002976218	0.054179756978273624	0.6246797697394574	0.09092713949137014	-0.02097567913001806	0.7400948661754244	0.3503016516905204	-0.07711325761914851	0.73012689135061	0.5900395437944891	-0.05463979715196013	0.7374583696809989	0.7007777446566354	-0.09050151697292047	0.6989149062297801	0.711241637134592	-0.1275333064566843	0.7956365585924737	0.7129254283030274
124	2.6382978723404253	0.3074009224694869	0.7268516685975968	0.4931158001930732	0.3108359135499611	0.8584654948709538	0.9233974718307536	0.31832521742543	1.0381770899150198	1.3533904843906064	0.2627914285733041	0.8596360445918347	1.4176697156461677	0.33762828720839333	0.8714646291955577	1.420194626818099	0.2932170313431252	1.1254651029816745	1.3934184809074586	0.10953366048205745	0.7551891966280811	0.4974796633087137	0.10888992247836868	0.8783284695292152	0.9333179158051765	0.09592801024378554	1.0156930237366983	1.3307998166205441	0.10270532302194921	0.8611825046961781	1.396744869597504	0.039172105821671285	0.8755080096607739	1.3841168314243366	0.11306864307442821	1.069989141077677	1.3949713195081301	0.19132974702329186	0.5796407397691516	0.03692975261335294	0.16996323945564765	0.38695626923710574	-0.18055531383463205	0.16439204499324175	0.3949442394136741	-0.03018435469675006	0.3379926215743396	0.5448675072152009	0.09399277289745593	0.43121343430800585	0.6153279740036979	0.3451552679634586	0.3981634223473812	0.5893388017747179	0.5845116246627386	0.312786451568786	0.5777325013299047	0.6867593018132835	0.32069382463556617	0.5624028715679695	0.7169462888999606	0.3653533248030986	0.6442113622126601	0.7183447099098461	0.05416815231171533	0.6246854934582176	0.09102938636766096	-0.021140252105551954	0.7403822046918695	0.35161762005704733	-0.07699355230682439	0.7309839076173649	0.5901003255705889	-0.054769396748652825	0.7371586710720526	0.7007772304984877	-0.09052922953445175	0.6988552148826624	0.7112480651924983	-0.1278578686573274	0.7999480172344698	0.7132550977625721
125	2.6595744680851063	0.3096225060093877	0.7333960465969871	0.4927547504882695	0.3111161129250587	0.857890979698913	0.9206257276152044	0.3183393318152824	1.0380103237254454	1.3533654962055999	0.26272997146652605	0.8597658252493375	1.417738952027839	0.33776160077286066	0.8713303111436098	1.4201536136944575	0.293209036927657	1.1253965140054365	1.3933869757190571	0.10850671542931775	0.7606312080077626	0.4989580257086955	0.10889783586343185	0.8784946355042657	0.9331792751301532	0.095948880253628	1.0157057772310583	1.3308125509850737	0.10304808398883611	0.8613265214834863	1.396781348688063	0.039164968958452256	0.8754644990441665	1.3841281753559613	0.11313781708090569	1.0697175720857919	1.3951073043495001	0.18974944879033065	0.585653654366505	0.03622184622420943	0.16996968776210025	0.38696133632014884	-0.18054203747144462	0.16471297849951086	0.39559108532473736	-0.03026513860793606	0.3379905555080782	0.5443714102627595	0.09247201413172539	0.43121525833830077	0.6153335780481093	0.3451396258452644	0.3981542344996299	0.5893490725922306	0.5845109710663198	0.31277411647969866	0.5777181591942534	0.686773319006941	0.3206795271504651	0.5623350387488801	0.7169358343319956	0.36538178928296516	0.6443343492535683	0.7183766483835182	0.05418440384183905	0.6246785131775128	0.09100718011528716	-0.02116365010864272	0.7406052940503728	0.351781255086932	-0.07708671920988307	0.7305275332188514	0.5901033859889473	-0.054780124356308316	0.7372103429434477	0.7007977442186377	-0.09051762441588791	0.6988139297829197	0.7112337922152348	-0.12797877867746188	0.8007478010648865	0.7131774760888254
